<?xml version="1.0" encoding="UTF-8" standalone="no"?>
<svg
   version="1.1"
   id="Layer_1"
   x="0px"
   y="0px"
   viewBox="0 0 400 426.13881"
   enable-background="new 0 0 1599.656 1704.259"
   xml:space="preserve"
   sodipodi:docname="404.svg"
   width="400"
   height="426.13882"
   inkscape:version="1.3.2 (091e20e, 2023-11-25, custom)"
   xmlns:inkscape="http://www.inkscape.org/namespaces/inkscape"
   xmlns:sodipodi="http://sodipodi.sourceforge.net/DTD/sodipodi-0.dtd"
   xmlns="http://www.w3.org/2000/svg"
   xmlns:svg="http://www.w3.org/2000/svg"><defs
   id="defs15">
	
	
	
	
	
	
	
	
	
	
	
	
	
	
	
</defs><sodipodi:namedview
   id="namedview15"
   pagecolor="#ffffff"
   bordercolor="#000000"
   borderopacity="0.25"
   inkscape:showpageshadow="2"
   inkscape:pageopacity="0.0"
   inkscape:pagecheckerboard="0"
   inkscape:deskcolor="#d1d1d1"
   inkscape:zoom="1.5262632"
   inkscape:cx="249.62929"
   inkscape:cy="266.33676"
   inkscape:window-width="1920"
   inkscape:window-height="1001"
   inkscape:window-x="-9"
   inkscape:window-y="-9"
   inkscape:window-maximized="1"
   inkscape:current-layer="Layer_1" />

<g
   id="g1"
   transform="scale(0.79999999)"><path
     fill="#1f1a17"
     stroke="#1f1a17"
     d="m 99.143489,0.41143919 c 4.812031,-0.40457953 9.664991,-0.19463736 14.492001,-0.15737345 2.65871,0.50173185 5.37365,0.0934925 8.03603,0.55030801 8.97993,0.71899375 18.0121,1.95469145 26.55352,4.93181115 2.52031,0.9998039 5.11913,1.913435 7.31704,3.5613646 3.52742,2.1233775 6.45197,5.5270355 7.34697,9.6087635 0.78654,2.965808 -0.30343,6.059045 -1.78999,8.620273 -3.3328,5.096504 -8.60896,8.447926 -13.89279,11.245381 -9.99072,4.98804 -20.76797,8.189741 -31.6091,10.735997 -13.28625,2.913239 -26.797076,4.85695 -40.360472,5.707033 -2.786142,0.513044 -5.639492,-0.01863 -8.417982,0.535336 -4.617064,0.168353 -9.238121,0.05989 -13.855518,0.0712 -1.756394,0.02628 -3.475192,-0.464468 -5.234913,-0.355671 C 45.837142,55.58198 43.990915,55.09522 42.107424,55.068936 33.554693,54.25645 24.953052,52.941899 16.875768,49.897571 12.430717,48.148829 7.9633738,45.692406 5.2634043,41.614338 3.6044951,39.05677 2.5111988,35.862388 3.3985455,32.82538 4.2709201,28.59393 7.4503297,25.433485 10.550886,22.662315 14.569066,19.42701 19.246019,17.183856 23.885708,15.00059 41.272313,7.6835566 59.962158,4.0849282 78.625717,1.9202946 82.763674,1.5306872 86.893979,0.9690669 91.050568,0.85694247 93.721259,0.29898205 96.458825,0.7857418 99.143489,0.41143919 M 70.597675,8.5971877 C 59.790477,10.158612 49.054481,12.345537 38.599294,15.524947 c -7.36195,2.310362 -14.682977,5.003012 -21.281017,9.058456 -2.973127,1.917427 -5.980191,4.10402 -7.7103007,7.275777 -1.1721494,2.070808 -1.1834617,4.78209 0.1873176,6.766726 1.8162831,2.632428 4.7222021,4.235109 7.5792121,5.519715 6.302258,2.677345 13.11024,3.875779 19.861994,4.778098 7.979798,0.906311 16.03845,1.464272 24.070818,1.112261 5.313766,0.35933 10.62354,-0.164693 15.926326,-0.449496 12.881666,-0.977512 25.684816,-2.85335 38.345556,-5.407259 8.45192,-1.797317 16.87356,-3.965611 24.85336,-7.332005 4.98039,-2.115725 9.90854,-4.827007 13.32351,-9.136977 2.29539,-1.87983 4.17522,-4.812034 3.62857,-7.889966 -0.53167,-2.763518 -2.84237,-4.699577 -5.10781,-6.118933 C 147.59588,10.888918 142.22622,9.5371031 136.93474,8.4138626 126.92506,6.4591712 116.69479,5.8862387 106.51675,5.9085305 94.500141,5.9534468 82.494842,6.9046745 70.597675,8.5971877 Z"
     id="path1"
     style="stroke-width:0.332713" /><path
     fill="#da251d"
     stroke="#da251d"
     d="M 70.597675,8.5971877 C 82.494509,6.9046745 94.500141,5.9534468 106.51675,5.9085305 c 10.17804,-0.022625 20.40864,0.550308 30.41799,2.5053321 5.29115,1.1235733 10.66114,2.4753884 15.34209,5.2874814 2.26544,1.419356 4.57614,3.355415 5.10781,6.118933 0.54665,3.078265 -1.33318,6.010136 -3.62857,7.889966 0.31841,-1.778686 0.73031,-3.804578 -0.3407,-5.414911 -1.44165,-2.231841 -3.88709,-3.53874 -6.24603,-4.591112 -6.05904,-2.49402 -12.60851,-3.46754 -19.08677,-4.137957 -6.43335,-0.595557 -12.90795,-0.820139 -19.36758,-0.700362 -14.278398,0.187318 -28.527183,1.53148 -42.663178,3.501143 -9.151949,1.303239 -18.277945,2.917232 -27.194,5.388627 -5.736978,1.632625 -11.499907,3.490164 -16.630348,6.59438 -2.407847,1.494216 -4.879242,3.385359 -5.808178,6.175162 -0.681397,2.179273 0.475447,4.422427 2.067148,5.875386 2.617457,2.385223 5.942927,3.81955 9.241781,4.98804 8.036028,2.670025 16.506579,3.729717 24.928554,4.269046 2.875975,0.28081 5.774241,0.05989 8.650216,0.378295 C 53.274618,50.387991 45.215966,49.83003 37.236167,48.923719 30.484413,48.0214 23.676764,46.822966 17.374173,44.145621 14.51683,42.861348 11.611244,41.258334 9.7949612,38.625906 8.4245146,36.64127 8.4354941,33.929988 9.6076436,31.85918 c 1.7301094,-3.171757 4.7371734,-5.358683 7.7103014,-7.275777 6.59804,-4.055444 13.919066,-6.748094 21.281016,-9.058456 10.45552,-3.17941 21.191516,-5.366335 31.998714,-6.9277593 z"
     id="path2"
     style="stroke-width:0.332713" /><path
     fill="#902929"
     stroke="#902929"
     d="m 108.71499,12.866234 c 6.45963,-0.119777 12.93423,0.104804 19.36758,0.700361 6.47826,0.670418 13.02773,1.643938 19.08677,4.137957 2.35927,1.052373 4.80438,2.359271 6.24603,4.591113 1.07101,1.610333 0.65911,3.636225 0.3407,5.414911 -3.4153,4.310303 -8.34312,7.021252 -13.32351,9.136976 -7.9798,3.366395 -16.40177,5.534688 -24.85336,7.332006 -12.66074,2.553908 -25.46389,4.43008 -38.345556,5.407259 -5.302453,0.28447 -10.61256,0.808826 -15.926326,0.449496 -2.875975,-0.318407 -5.774242,-0.09748 -8.650216,-0.378295 -8.421975,-0.539329 -16.892194,-1.599021 -24.928554,-4.269046 -3.299187,-1.16849 -6.624325,-2.602485 -9.241781,-4.98804 -1.591368,-1.45296 -2.748546,-3.696114 -2.067149,-5.875387 0.928604,-2.789802 3.400332,-4.680945 5.808179,-6.175161 5.130108,-3.104216 10.89337,-4.961755 16.630348,-6.59438 8.916054,-2.471395 18.042051,-4.085388 27.193999,-5.388627 14.135996,-1.969663 28.384448,-3.313826 42.662846,-3.501143 M 83.8054,20.681339 c -13.162476,0.816479 -26.336264,2.741226 -38.93346,6.733122 -4.081728,1.404384 -8.249629,2.890947 -11.732141,5.508404 -1.284274,1.003463 -2.759858,2.557568 -2.145669,4.332594 0.921284,1.778686 2.992092,2.486367 4.767118,3.119188 6.294938,1.868519 12.926582,1.973324 19.438782,1.980976 3.490164,-0.134749 6.991308,-0.01131 10.466499,-0.434524 12.361302,-1.014776 24.733584,-2.995751 36.510641,-6.979995 3.69212,-1.329522 7.44812,-2.789802 10.54502,-5.257537 1.00346,-0.876367 2.08944,-2.059496 1.99595,-3.482512 -0.45316,-1.786338 -2.26179,-2.699969 -3.84584,-3.306506 -4.74815,-1.711478 -9.84465,-2.048184 -14.840347,-2.359271 -4.074408,0.0376 -8.159797,-0.157373 -12.226553,0.146061 z"
     id="path3"
     style="stroke-width:0.332713" /><path
     fill="#1f1a17"
     stroke="#1f1a17"
     d="m 83.8054,20.681339 c 4.066756,-0.303434 8.152145,-0.108464 12.226553,-0.146061 4.995357,0.310755 10.091867,0.647793 14.840347,2.359271 1.58405,0.606537 3.39268,1.520501 3.84584,3.306506 0.0935,1.423016 -0.99249,2.606145 -1.99595,3.482512 -3.0969,2.467735 -6.8529,3.928347 -10.54502,5.257537 -11.777057,3.984244 -24.149671,5.965219 -36.510641,6.979995 -3.475191,0.423212 -6.976335,0.299443 -10.466499,0.434524 -6.511867,-0.0077 -13.143844,-0.112457 -19.438782,-1.980976 -1.775026,-0.632821 -3.845834,-1.340502 -4.767118,-3.119188 -0.614189,-1.775026 0.861395,-3.329131 2.145669,-4.332594 3.482512,-2.617457 7.650413,-4.10402 11.732141,-5.508404 12.596863,-3.991896 25.770651,-5.916643 38.93346,-6.733122 m -0.509384,5.722006 c -2.988432,0.292122 -5.984184,0.438184 -8.964631,0.827458 -11.511219,1.411703 -23.123583,3.422623 -33.836956,8.036028 0.190978,0.108464 0.572933,0.333379 0.76391,0.445503 3.594969,0.842431 7.317034,0.644133 10.971891,0.992484 2.879635,0.19863 5.75561,-0.05989 8.627925,-0.247206 3.748349,-0.06355 7.470747,-0.516704 11.196805,-0.891339 9.983399,-1.276954 19.98177,-3.0593 29.46311,-6.51952 1.20575,-0.546648 2.59882,-0.812486 3.57633,-1.756394 -7.178956,-1.366454 -14.529927,-1.048047 -21.798384,-0.887014 z"
     id="path4"
     style="stroke-width:0.332713" /><path
     fill="#1f1a17"
     stroke="#1f1a17"
     d="m 112.87923,59.356614 c 2.13835,0.119777 4.23145,-0.453156 6.3698,-0.374303 4.3662,0.04492 8.73639,-0.112457 13.09893,0.08617 2.3067,0.468128 4.67329,0.104805 6.9913,0.48676 23.95105,1.797318 47.56139,7.788821 69.63992,17.225572 0.77156,0.258519 1.71514,0.449496 2.43047,-0.06355 3.18673,-2.074468 6.24603,-4.377511 9.65767,-6.084996 7.87134,-4.137957 16.997,-5.504744 25.80093,-4.767118 9.06977,0.921284 17.89965,3.643545 26.09671,7.594184 2.62877,0.97352 4.93181,2.606477 7.44813,3.815891 8.21569,4.740833 15.94129,10.354041 22.89866,16.795041 1.71514,1.269301 3.08559,2.917231 4.62472,4.385163 1.40039,1.467931 2.95084,2.801112 4.25408,4.362532 1.20209,1.6476 2.83105,2.92821 3.99189,4.61707 6.01413,7.14868 11.27533,15.00138 15.02368,23.58405 1.80131,4.68461 3.52376,9.47768 3.90938,14.52561 0.61053,3.09323 0,6.56077 -2.08944,8.99091 -1.31455,1.40805 -3.25427,2.15332 -5.15639,2.2355 -4.22413,-0.33338 -7.57556,-3.22798 -10.93829,-5.50474 -4.34757,-2.80111 -8.55672,-6.25002 -13.7953,-7.14868 -2.80477,-0.80151 -5.68441,0.24355 -8.10357,1.6476 -0.99248,15.51043 -6.18614,30.96497 -15.98987,43.14993 -1.55045,1.71148 -3.1305,3.39634 -4.60209,5.17902 -0.22858,0.68905 -0.0113,1.42668 0.22857,2.08578 1.1086,2.9322 2.34031,5.83047 3.12684,8.87114 0.27349,1.08598 1.03341,1.95835 1.35947,3.0257 1.99229,6.53083 3.36273,13.23001 4.51226,19.95182 2.3779,-2.3443 4.5086,-4.97307 7.13005,-7.06617 2.65505,-1.22438 4.69957,-3.40033 7.24583,-4.82301 3.52011,-2.01824 7.18594,-3.84217 11.08069,-5.03662 12.38359,-4.37019 25.49017,-6.41837 38.5515,-7.20491 2.75986,0.16836 5.48612,-0.34435 8.24198,-0.31441 3.11187,-0.0376 6.2274,-0.0376 9.33927,0.10481 3.4153,0.51304 6.89781,-0.11612 10.30546,0.46812 2.15332,0.29213 4.34391,-0.0675 6.49324,0.28447 2.35162,0.43453 4.7558,0.004 7.11507,0.3783 2.35162,0.43452 4.75581,-0.008 7.11508,0.37064 2.35162,0.43818 4.75581,-0.004 7.11508,0.3743 1.87617,0.33338 3.7896,0.17967 5.68441,0.20595 5.11913,0.0113 10.23792,0.20229 15.35705,0.0263 2.75221,-0.12743 5.53103,0.19829 8.26061,-0.27715 13.16248,-0.57659 26.27272,-2.88729 38.84363,-6.86787 4.14927,-1.34816 8.20072,-2.97712 12.24518,-4.61707 3.35142,-1.40804 6.6393,-3.14913 10.29782,-3.6136 1.55776,-0.17966 3.21301,0.27349 4.37019,1.35947 1.20575,1.29924 1.71513,3.23164 1.13089,4.93547 -1.68885,7.34698 -7.24983,12.85937 -12.46611,17.92959 -5.21262,4.54986 -10.91566,8.53776 -16.96339,11.9005 -2.59117,1.27329 -4.9917,2.92089 -7.7103,3.92835 -8.75136,4.17156 -17.9632,7.332 -27.35138,9.72488 -13.16247,3.44524 -26.69592,5.33239 -40.24035,6.24603 -2.01858,-0.14973 -3.98824,0.42687 -5.99916,0.38195 -2.75221,-0.004 -5.50075,-0.0186 -8.24963,-0.0113 -1.3781,-0.015 -2.72991,0.36698 -4.10801,0.25452 -4.3326,-0.58058 -8.72508,0.008 -13.07265,-0.35933 -2.31036,-0.52036 -4.69957,-0.0263 -7.01393,-0.46812 -1.1422,-0.22858 -2.31036,-0.19098 -3.46388,-0.18333 0.0263,0.22092 0.0749,0.66277 0.10115,0.88369 6.62798,5.11513 14.91122,7.37326 23.04473,8.71775 3.12318,0.42322 6.2274,1.07467 9.3915,1.10095 2.24315,0.43053 4.5462,0.20595 6.79301,0.63648 4.48232,0.17601 8.99092,-0.16103 13.45094,0.40458 4.21648,-0.4455 8.47421,-0.35201 12.71331,-0.35201 1.51651,0.004 3.05198,0.0599 4.56117,-0.20229 2.5203,-0.39692 5.08918,0.03 7.61681,-0.29578 2.90592,-0.55796 5.89801,0.0599 8.79994,-0.56162 4.36253,-0.12344 8.73273,-0.13109 13.09526,-0.0263 3.94698,0.53932 8.03237,1.35547 11.35019,3.69212 1.56908,1.27329 2.84204,3.26159 2.61746,5.35502 -0.3783,2.35927 -2.07447,4.1679 -3.56869,5.91298 -5.46714,5.08154 -12.58222,7.83374 -19.59981,10.03564 -9.40681,2.6138 -19.13169,4.12298 -28.88286,4.48231 -3.00706,0.4831 -6.06636,0.22459 -9.09605,0.29579 -3.17908,-0.0712 -6.38477,0.18332 -9.54155,-0.26218 -8.75137,-0.36333 -17.4801,-1.33319 -26.14562,-2.66238 -3.97693,-0.56927 -7.90128,-1.45295 -11.87455,-2.00326 0.0712,1.16083 1.07833,1.85354 1.82727,2.61379 5.41091,4.82302 11.99432,8.20072 18.92573,10.24558 8.30586,2.75221 17.09083,3.40033 25.63258,5.04793 1.42301,0.56561 3.57234,0.60288 4.10402,2.32533 -0.4495,2.07081 -2.38922,3.26925 -3.71475,4.76313 -5.77058,5.74796 -13.39471,9.70991 -21.50193,10.77725 -3.34411,0.38196 -6.73679,0.90232 -10.09952,0.35567 -5.10782,-0.3184 -10.13678,-1.33318 -15.11351,-2.47538 -1.6253,-0.39693 -3.22432,-0.9173 -4.88689,-1.0933 0.0186,0.22857 0.0562,0.68905 0.0749,0.92128 0.37829,0.29944 0.76757,0.59922 1.15718,0.90997 -1.32187,1.0933 -2.57254,2.26545 -3.82321,3.43394 -1.43799,2.19824 -3.80092,3.49748 -5.96156,4.87558 -6.39975,3.6512 -13.64558,5.50841 -20.85415,6.77405 -10.21929,1.63628 -20.58465,2.08212 -30.92006,2.05217 -2.96946,0.0413 -5.93893,-0.17234 -8.90108,-0.0186 0.83877,1.07101 2.05218,1.72645 3.11919,2.53894 4.04413,2.87963 7.93122,6.07002 12.47343,8.1558 6.58706,3.18673 14.07244,4.30997 21.32992,3.59863 9.9498,-1.02609 19.58085,-4.93913 27.45618,-11.09932 1.79366,-1.49022 4.39248,-1.99595 6.5681,-1.08963 1.42667,0.56562 1.99228,2.10841 2.65871,3.3664 1.12324,2.28408 0.43452,4.9205 -0.67042,7.06983 -5.53469,13.0427 -13.05767,25.28056 -22.543,35.82192 -9.92717,11.12926 -21.89154,20.40098 -35.05036,27.41126 -13.28624,7.12972 -27.74431,11.96438 -42.54706,14.75019 -34.05056,6.29093 -69.88346,2.10075 -101.72846,-11.43636 -17.68605,-7.57555 -34.17034,-18.26298 -47.56139,-32.14079 -1.64393,-1.60634 -2.92821,-3.55737 -4.73717,-4.99935 -4.774439,6.07036 -9.230802,12.3836 -13.847867,18.57739 -1.861198,2.47905 -3.696113,5.00301 -5.894018,7.20092 -2.130697,1.91742 -4.677285,3.82321 -7.676697,3.80457 -4.182873,-0.41955 -7.864015,-2.7522 -11.058064,-5.34005 -4.632036,-3.99189 -8.642896,-8.66518 -12.110436,-13.69049 -4.388823,-6.3209 -8.137172,-13.14384 -10.634852,-20.43858 -1.497876,-4.66598 -2.789802,-9.70625 -1.59902,-14.58551 0.662765,-3.0593 2.595164,-5.76326 5.216281,-7.45576 10.166724,-7.28709 22.737635,-9.59013 34.06187,-14.41714 -0.176006,-1.27329 -0.40824,-2.53895 -0.891339,-3.72972 C 66.051146,322.81741 54.176937,319.54085 43.343455,313.98753 34.809355,309.6363 26.934361,303.88435 20.519646,296.74698 11.292837,286.86107 5.0990439,274.32376 2.2456935,261.14232 -0.43564404,248.83725 -0.3454787,236.05273 1.5004154,223.63553 5.211501,199.6469 15.333309,177.10024 28.027657,156.57914 c 0.565613,-1.12324 2.01824,-2.3067 1.112261,-3.62125 -2.231842,-4.475 -5.474799,-8.34679 -7.889966,-12.71332 -1.299246,-2.40053 -2.306702,-5.01399 -2.5762,-7.7439 -0.265838,-2.40785 0.509384,-4.74084 1.029748,-7.05486 3.456227,-14.07245 10.559991,-27.321427 20.865457,-37.55536 1.213406,-1.160837 2.299383,-2.512651 3.808238,-3.306506 1.355475,-0.707681 2.49036,-1.745082 3.632233,-2.741226 6.87519,-5.34737 14.424458,-9.859629 22.520706,-13.087615 13.424987,-5.601563 27.890702,-8.372401 42.349096,-9.398489 m -24.123387,9.290357 c -11.851918,2.879635 -23.355484,7.571892 -33.398772,14.551887 -5.54966,3.815891 -10.526387,8.440607 -14.885266,13.567056 -6.860218,8.163456 -11.724489,17.918286 -14.521943,28.186146 -0.456816,1.59903 -0.909971,3.20936 -1.063352,4.87193 l -0.366983,0.0113 c -0.07486,1.49022 -0.112457,3.02936 0.423211,4.45237 1.673882,4.58712 4.898207,8.33946 7.36195,12.49239 1.426676,2.27676 2.890947,4.69226 3.051981,7.44081 0.09349,1.41536 -0.715334,2.65139 -1.400391,3.81589 -6.290946,9.92351 -11.818314,20.33378 -16.443031,31.13332 -5.894018,14.0089 -10.12946,28.83428 -11.3275611,44.02997 -0.033604,3.13815 -0.531676,6.261 -0.3520108,9.40281 0.28447,4.22014 0.4232115,8.45558 1.164497,12.62714 1.0823168,6.95404 3.1231809,13.74672 6.0627039,20.1428 5.111477,11.06938 13.32351,20.62192 23.273305,27.63585 9.945802,7.03622 21.479646,11.59739 33.331564,14.23348 11.342533,2.52396 23.003806,3.38502 34.600865,3.22432 2.40419,0.0186 4.79307,-0.56927 7.20092,-0.27715 -1.46793,0.83145 -3.13816,1.13456 -4.73718,1.59902 -3.62491,0.9885 -7.298398,1.79732 -10.986859,2.51632 -3.759662,0.5879 -7.5679,1.40438 -11.38745,0.85008 0.142401,1.22438 0.370643,2.44511 0.704022,3.63988 4.152929,16.89985 12.967838,32.53771 24.868667,45.1948 1.73743,1.99595 3.54606,3.94298 5.57195,5.6508 15.07624,14.316 33.64598,24.62146 53.22716,31.38786 16.13228,5.41857 33.0431,8.65387 50.06273,9.17457 4.14927,0.32206 8.3358,0.35966 12.48839,0.008 21.02284,-0.70402 42.04533,-5.4372 60.97473,-14.72423 11.80334,-5.76692 22.71535,-13.37974 32.11084,-22.56563 10.21929,-10.02465 18.57373,-21.91783 24.67769,-34.86304 1.08963,-2.55391 2.47139,-5.01033 3.18673,-7.70664 -1.7564,0.95123 -3.32148,2.2019 -4.99536,3.28022 -9.45173,5.98019 -20.53973,9.54156 -31.76981,9.4291 -7.09977,-0.27715 -14.20354,-1.92109 -20.46487,-5.34737 -2.05218,-0.89134 -3.7224,-2.43779 -5.76692,-3.32148 0.12343,0.92128 0.31075,1.84989 0.76757,2.67369 1.3781,2.62145 3.30284,4.90186 5.21628,7.14468 0.91363,1.09729 2.09709,1.99595 2.71128,3.32548 -2.19824,-0.0336 -4.18653,-1.13456 -5.94293,-2.35162 -2.27675,-1.5764 -3.90938,-3.86447 -5.48212,-6.09997 -2.18692,-3.3664 -4.0255,-6.94273 -6.16384,-10.33907 -1.44531,-2.22452 -2.99942,-4.48997 -5.23492,-5.9915 -1.74874,-1.19844 -3.92069,-1.39308 -5.91298,-1.94738 -4.92815,-1.28427 -9.85963,-2.7522 -14.42446,-5.04027 3.37771,-0.10115 6.77039,-0.15738 10.12946,0.23223 2.37025,0.14972 4.75581,0.0675 7.11874,0.3783 2.99209,0.14606 5.99516,0.0449 8.97594,0.41955 7.24617,0.11978 14.49932,0.0226 21.74549,0.0486 5.52703,-0.37065 11.06937,-0.61419 16.55914,-1.39308 6.93142,-1.05969 13.96765,-2.3779 20.27756,-5.57594 1.99228,-1.02609 4.14527,-1.99595 5.53834,-3.83452 -3.42628,-2.65506 -5.50474,-6.54581 -7.336,-10.37667 -3.29918,-7.1936 -5.44851,-14.88127 -9.16692,-21.88788 -2.81242,-5.68441 -6.96901,-11.08069 -12.88166,-13.74673 -1.4493,-0.58424 -2.99209,-1.47924 -4.59843,-1.071 -10.6648,3.19804 -20.83552,7.86368 -30.61297,13.15516 -5.8867,2.99941 -11.63465,6.26865 -17.67507,8.95365 -7.19725,3.28022 -14.79909,5.83047 -22.66676,6.83792 -4.71821,0.68539 -9.50396,0.54665 -14.25245,0.37431 1.84989,-0.7526 3.81589,-1.12724 5.70704,-1.76006 9.24943,-2.95449 18.39406,-6.59804 26.475,-12.06153 5.49709,-3.75966 10.41393,-8.45923 13.89644,-14.17359 4.46003,-7.14502 6.54581,-15.57797 6.88285,-23.93973 0.21726,-2.00326 0.26217,-4.02184 0.0113,-6.02144 -0.31076,-11.44002 -2.84603,-22.7077 -6.20111,-33.61238 -3.63989,-11.25669 -8.3957,-22.17601 -14.43212,-32.3617 -1.05237,-1.83858 -2.3403,-3.55372 -3.12684,-5.53103 2.68866,1.44531 4.72587,3.78595 6.88285,5.89402 3.85315,4.1303 7.46708,8.54541 10.11448,13.56339 1.62531,-1.21706 2.81609,-2.88329 4.04048,-4.47865 5.49709,-7.24983 9.17823,-15.7613 11.33521,-24.56889 2.01824,-8.74371 2.68134,-17.82113 1.73011,-26.75216 -0.11612,-3.17176 -0.96986,-6.25734 -1.10095,-9.42178 1.83858,1.69252 2.9881,4.00321 3.90938,6.29494 1.32187,3.37771 1.63629,7.01759 2.44512,10.53005 1.9284,-0.70402 3.89441,-1.47525 5.98418,-1.42302 4.62838,-0.21726 8.92737,1.86486 12.87035,4.05179 4.00687,2.41916 7.75522,5.24256 11.72848,7.71396 1.18713,0.68539 2.89095,1.59902 4.10402,0.47544 0.76757,-1.16449 0.52802,-2.67368 0.53534,-3.99555 -0.45682,-5.65447 -2.29539,-11.12561 -4.74815,-16.21446 -4.16424,-8.80359 -10.08821,-16.64898 -16.5515,-23.8835 -8.79262,-9.447729 -18.82825,-17.809815 -30.03604,-24.246822 -10.70239,-6.227397 -22.68906,-10.687421 -35.1515,-11.215437 -8.31684,-0.108465 -16.87722,1.876171 -23.74875,6.710497 1.08963,1.123241 2.51265,1.804971 3.79725,2.666366 1.6476,1.089636 3.29919,2.179273 4.95045,3.272902 4.8493,3.141813 9.15195,7.227201 12.22256,12.1477 1.64393,2.591172 3.28787,5.231254 4.23145,8.170774 C 226.5907,89.9393 205.45574,80.030761 183.53059,73.425069 169.06488,69.118759 154.15732,66.265076 139.10736,65.111891 122.28204,63.898818 105.17991,64.572895 88.755843,68.646971 M 73.608399,336.63999 c -4.310303,1.59536 -8.717757,2.92455 -13.001443,4.60209 -4.636029,1.82726 -9.312981,3.81589 -13.18876,7.01759 -2.464076,1.97732 -2.531284,5.52704 -2.156981,8.39935 1.329523,8.16346 5.358682,15.57432 9.657672,22.52803 3.66983,5.53835 7.710301,10.96058 12.878006,15.19968 2.175614,1.67022 4.486308,3.47519 7.268458,3.92069 2.156981,-0.19863 3.527428,-2.18692 4.935471,-3.62491 4.70723,-5.70703 8.882451,-11.82197 13.346134,-17.71998 1.692513,-2.4002 3.654857,-4.6021 5.287482,-7.03989 -6.972676,-9.20452 -12.683369,-19.38987 -16.510239,-30.30221 -0.621508,-1.76737 -1.067344,-3.60228 -1.864859,-5.30245 -2.269438,0.61818 -4.407787,1.61399 -6.650941,2.32201 z"
     id="path5"
     style="stroke-width:0.332713" /><path
     fill="#4d4948"
     stroke="#4d4948"
     d="m 88.755843,68.646971 c 16.424397,-4.074076 33.526197,-4.748153 50.351187,-3.53508 15.04996,1.153517 29.95752,4.006868 44.42323,8.313178 21.92515,6.605692 43.06011,16.514231 61.14707,30.684161 1.63629,1.36679 3.52011,2.4002 5.18268,3.74103 1.78634,1.44531 3.58366,2.89461 5.22393,4.51226 1.76738,1.72246 3.17542,3.76732 4.88324,5.54966 -0.77156,-3.99921 -1.65126,-8.11854 -0.8238,-12.1853 0.64779,-3.05198 2.69631,-5.93161 5.71435,-6.987643 4.63204,-1.628965 9.72123,-0.745278 14.23349,0.853743 4.54985,1.67388 8.85616,4.11533 12.43982,7.40687 1.13089,1.06335 2.29173,2.22053 2.69997,3.77463 -3.22799,0.24721 -6.25002,-1.3069 -9.47768,-1.21341 -2.02589,-0.10114 -4.52357,0.52802 -5.30611,2.63243 -0.95123,2.95816 -0.0449,6.09631 0.9286,8.93103 0.6255,1.99595 1.8612,3.89807 1.68154,6.07002 -0.42322,5.25022 -1.49422,10.51508 -3.73338,15.31214 -2.31802,5.26519 -6.07402,9.93848 -10.92698,13.06898 -4.8982,3.23531 -10.67245,4.97307 -16.48428,5.5683 -1.57274,0.12743 -3.14182,0.26583 -4.69193,0.54298 2.88729,4.87193 5.99517,9.63139 8.47421,14.73555 6.3698,12.31239 10.93064,25.71476 12.12907,39.57759 1.5764,16.63002 -2.43779,33.73581 -11.2903,47.90974 -3.65485,5.79287 -7.80778,11.3239 -12.79183,16.04211 -3.98824,4.17156 -8.48918,7.82642 -13.26362,11.06172 -3.30285,2.18327 -6.7105,4.25408 -10.42158,5.6731 -1.04838,0.4831 -2.49036,0.80151 -2.73358,2.1307 -2.78215,10.15175 -3.4153,21.17987 0.0299,31.25709 3.60994,10.79589 11.47761,19.67834 20.70808,26.10803 6.441,4.53854 13.51449,8.12586 20.84283,10.98686 1.94738,0.67774 3.81223,1.70748 5.87905,1.98097 0.85374,0.11612 1.5205,-0.72265 1.47558,-1.52782 0.0636,-3.17541 -1.16449,-6.17516 -1.966,-9.20085 -1.02609,-3.8495 -2.58019,-7.59053 -3.04067,-11.57111 -0.0825,-0.89866 -0.007,-2.58385 1.28428,-2.37424 2.59882,0.46446 4.84563,2.01824 7.05485,3.39267 10.11449,6.99131 19.17661,15.37203 29.18629,22.5094 3.79726,2.52396 7.69899,5.46715 12.45113,5.6508 0.4495,2.86101 -0.92494,5.55698 -2.53527,7.81511 -2.31036,3.38536 -5.51606,5.99916 -8.65787,8.57536 -9.40681,7.05884 -20.03401,12.32769 -30.96098,16.59641 -14.68664,5.68075 -30.5604,7.72893 -46.23952,7.59052 -14.31965,-0.37829 -28.61701,-2.6138 -42.25893,-7.02125 -13.57437,-4.29899 -26.50861,-10.80354 -37.73902,-19.58484 -12.64943,-9.99837 -22.96987,-23.35948 -27.81916,-38.8586 -1.35947,-4.41877 -1.67389,-9.20086 -0.67408,-13.72809 1.63262,-6.62433 6.47094,-12.00929 12.15169,-15.55169 6.28729,-4.17156 13.55574,-6.47461 20.753,-8.50782 8.25695,-3.93933 16.8363,-7.15999 25.31417,-10.59359 11.85957,-4.77444 23.76006,-9.44407 35.64559,-14.14731 2.3403,-0.97751 4.0591,-2.92089 5.93161,-4.56117 7.6767,-7.11874 13.85519,-15.84747 17.97451,-25.47154 4.56849,-10.68742 6.6393,-22.38563 6.3698,-33.98668 -0.39693,-13.7018 -3.83086,-27.25755 -9.69494,-39.63016 -5.75561,-12.09147 -13.773,-23.08965 -23.44565,-32.35039 -8.72507,-8.21969 -18.69716,-15.14711 -29.55327,-20.25127 -14.65669,-6.96502 -30.74771,-10.75097 -46.93987,-11.49991 -3.63224,-0.015 -7.26846,-0.44184 -10.90069,-0.13109 -19.2701,0.50173 -38.300643,4.87558 -56.331381,11.56346 -2.243154,0.74894 -4.392483,2.14201 -6.841587,1.97332 -2.175613,-0.15737 -4.317622,-0.60654 -6.463291,-0.98849 -4.066756,-0.83511 -8.159797,-1.55411 -12.226553,-2.38922 -3.355082,-0.67407 -6.763066,-1.28826 -10.200661,-1.06734 0.153381,-1.66257 0.606537,-3.2729 1.063352,-4.87192 2.797122,-10.26787 7.661725,-20.02303 14.521943,-28.186154 4.358879,-5.126449 9.335606,-9.751165 14.885266,-13.567056 10.043288,-6.978997 21.547187,-11.670921 33.399105,-14.550889 z"
     id="path6"
     style="stroke-width:0.332713" /><path
     fill="#383431"
     stroke="#383431"
     d="m 219.47562,77.851488 c 6.87153,-4.834326 15.43192,-6.818962 23.74875,-6.710497 12.46245,0.528016 24.44912,4.98804 35.15151,11.215437 11.20779,6.437007 21.24375,14.799093 30.03604,24.246822 6.46329,7.23486 12.38759,15.07991 16.55149,23.8835 2.45277,5.08919 4.29134,10.55999 4.74816,16.21446 -0.007,1.32187 0.23223,2.83106 -0.53534,3.99555 -1.2134,1.12325 -2.91723,0.20961 -4.10402,-0.47544 -3.97326,-2.4714 -7.72161,-5.29514 -11.72848,-7.71396 -3.94332,-2.18693 -8.24198,-4.26905 -12.87035,-4.05179 -2.08944,-0.0526 -4.05545,0.719 -5.98419,1.42302 -0.80882,-3.51246 -1.12324,-7.15234 -2.44511,-10.53005 -0.92128,-2.29173 -2.07081,-4.60209 -3.90938,-6.29494 0.13109,3.16411 0.98483,6.25002 1.10095,9.42178 0.95123,8.93103 0.28846,18.00812 -1.73011,26.75216 -2.15698,8.80759 -5.83812,17.31906 -11.33522,24.56889 -1.22438,1.59536 -2.4155,3.26159 -4.04047,4.47865 -2.6474,-5.01798 -6.261,-9.43276 -10.11449,-13.56339 -2.15698,-2.10841 -4.19418,-4.44871 -6.88284,-5.89402 0.78654,1.97731 2.07447,3.69212 3.12684,5.53103 6.03642,10.18569 10.79223,21.10501 14.43211,32.3617 3.35508,10.90468 5.89036,22.17236 6.20112,33.61238 0.25086,1.9996 0.20594,4.01818 -0.0113,6.02144 -0.33704,8.36176 -2.42282,16.79504 -6.88284,23.93973 -3.48251,5.71436 -8.39935,10.41393 -13.89644,14.17359 -8.08095,5.46349 -17.22557,9.10704 -26.47501,12.06153 -1.89114,0.63282 -3.85714,1.00746 -5.70703,1.76006 4.74815,0.17234 9.5339,0.31075 14.25244,-0.37431 7.86768,-1.00745 15.46918,-3.55737 22.66677,-6.83792 6.04008,-2.685 11.78837,-5.95391 17.67507,-8.95365 9.77745,-5.29115 19.94783,-9.95712 30.61296,-13.15516 1.60634,-0.40824 3.14947,0.48676 4.59844,1.071 5.91298,2.66637 10.06957,8.06232 12.88166,13.74673 3.71841,7.00627 5.86807,14.69428 9.16692,21.88788 1.83126,3.83086 3.90938,7.72161 7.336,10.37667 -1.39307,1.83857 -3.54639,2.80843 -5.53835,3.83452 -6.30991,3.19804 -13.34613,4.51625 -20.27755,5.57594 -5.48977,0.77889 -11.03178,1.02243 -16.55915,1.39308 -7.24583,-0.0263 -14.49932,0.0712 -21.74548,-0.0486 -2.98078,-0.3743 -5.98385,-0.27349 -8.97594,-0.41955 -2.36294,-0.31076 -4.74816,-0.22858 -7.11874,-0.3783 -3.35908,-0.38961 -6.75176,-0.33338 -10.12946,-0.23223 4.56483,2.28807 9.49664,3.756 14.42446,5.04027 1.99228,0.5543 4.16424,0.74894 5.91298,1.94738 2.2355,1.50153 3.78961,3.76698 5.23491,5.9915 2.13835,3.39634 3.97693,6.97267 6.16385,10.33907 1.57274,2.2355 3.20536,4.52357 5.48212,6.09997 1.75639,1.21706 3.74469,2.31801 5.94293,2.35162 -0.61419,-1.32919 -1.79732,-2.22819 -2.71128,-3.32548 -1.91344,-2.24315 -3.83819,-4.52357 -5.21629,-7.14468 -0.45681,-0.8238 -0.64413,-1.75241 -0.76756,-2.67369 2.04452,0.88369 3.71474,2.43047 5.76692,3.32148 6.261,3.42628 13.36476,5.07022 20.46487,5.34737 11.23041,0.11246 22.31841,-3.44891 31.7698,-9.4291 1.67389,-1.07832 3.2393,-2.32933 4.99536,-3.28022 -0.71533,2.69631 -2.09709,5.15273 -3.18673,7.70664 -6.10396,12.94555 -14.45839,24.83872 -24.67768,34.86304 -9.3955,9.18589 -20.3075,16.79871 -32.11084,22.56563 -18.9294,9.28669 -39.95223,14.02021 -60.97473,14.72423 -4.15293,0.35201 -8.33946,0.31441 -12.4884,-0.008 -17.01962,-0.52037 -33.93078,-3.756 -50.06272,-9.17457 -19.58085,-6.76673 -38.15092,-17.0722 -53.22716,-31.38786 -2.0259,-1.70748 -3.83453,-3.65485 -5.57195,-5.6508 -11.900499,-12.65709 -20.715741,-28.29495 -24.86867,-45.1948 -0.333379,-1.19444 -0.56162,-2.4155 -0.704022,-3.63988 3.81955,0.5543 7.627788,-0.26218 11.38745,-0.85008 3.688461,-0.719 7.361952,-1.52782 10.986862,-2.51632 1.59902,-0.46446 3.26924,-0.76757 4.73717,-1.59902 -2.40784,-0.29212 -4.79706,0.29579 -7.20091,0.27715 -11.597394,0.16104 -23.258334,-0.70036 -34.600868,-3.22432 C 57.813494,314.60604 46.279651,310.04487 36.333848,303.00865 26.384053,295.99472 18.17202,286.44218 13.060544,275.3728 10.12102,268.97672 8.0801562,262.18404 6.9978394,255.23 c -0.7412855,-4.17156 -0.880027,-8.407 -1.164497,-12.62714 -0.1796652,-3.14181 0.3184068,-6.26499 0.3520108,-9.40281 1.1984338,-15.19602 5.4335428,-30.02107 11.3275618,-44.02997 4.624716,-10.79954 10.151752,-21.20981 16.44303,-31.13332 0.68539,-1.1645 1.494216,-2.4002 1.400391,-3.81589 -0.161033,-2.74855 -1.625305,-5.16405 -3.05198,-7.44081 -2.464076,-4.15293 -5.688069,-7.90494 -7.36195,-12.49239 -0.535336,-1.42301 -0.498072,-2.96215 -0.423212,-4.45237 l 0.366983,-0.0113 c 3.437595,-0.22092 6.845246,0.39326 10.200661,1.06734 4.066756,0.83511 8.159797,1.55411 12.226553,2.38922 2.145669,0.38195 4.287678,0.83145 6.463291,0.98849 2.449104,0.16868 4.598433,-1.22439 6.841587,-1.97332 18.030738,-6.68788 37.061281,-11.06173 56.331381,-11.56346 3.63223,-0.31075 7.26845,0.11612 10.90069,0.13109 16.19216,0.74894 32.28285,4.53488 46.93987,11.49991 10.85578,5.10415 20.82786,12.03158 29.55327,20.25126 9.67265,9.26075 17.69004,20.25893 23.44565,32.3504 5.86408,12.37261 9.29801,25.92835 9.69494,39.63016 0.2695,11.60105 -1.80131,23.29959 -6.3698,33.98668 -4.11932,9.62373 -10.29781,18.3528 -17.97451,25.47154 -1.87251,1.64028 -3.59131,3.58365 -5.93161,4.56117 -11.88553,4.70323 -23.78635,9.37287 -35.64559,14.1473 -8.47787,3.43394 -17.05722,6.65427 -25.31417,10.5936 -7.19726,2.03321 -14.46571,4.33625 -20.753,8.50782 -5.68075,3.54239 -10.51873,8.92736 -12.15169,15.55169 -0.99981,4.52723 -0.68539,9.30932 0.67408,13.72808 4.84929,15.49913 15.16973,28.86023 27.81916,38.8586 11.23041,8.78131 24.16465,15.28586 37.73902,19.58485 13.64192,4.40745 27.93928,6.64295 42.25893,7.02125 15.67912,0.13874 31.55288,-1.90978 46.23952,-7.59052 10.92697,-4.26905 21.5545,-9.53757 30.96098,-16.59642 3.14181,-2.5762 6.34717,-5.18999 8.65787,-8.57535 1.61033,-2.25813 2.98444,-4.9541 2.53527,-7.81511 -4.75214,-0.18366 -8.65387,-3.12684 -12.45113,-5.6508 -10.00968,-7.13737 -19.0718,-15.51809 -29.18629,-22.5094 -2.20955,-1.37444 -4.45603,-2.92821 -7.05485,-3.39268 -1.29193,-0.20961 -1.36679,1.47526 -1.28428,2.37425 0.46048,3.98058 2.01458,7.72161 3.04067,11.5711 0.80151,3.0257 2.02955,6.02511 1.966,9.20086 0.0449,0.80517 -0.6215,1.64394 -1.47558,1.52782 -2.06715,-0.27349 -3.93201,-1.30324 -5.87905,-1.98097 -7.32834,-2.86101 -14.40216,-6.44832 -20.84283,-10.98687 -9.2308,-6.42968 -17.09814,-15.31213 -20.70808,-26.10802 -3.44525,-10.07689 -2.81243,-21.10501 -0.0299,-31.2571 0.24355,-1.32952 1.6852,-1.64759 2.73358,-2.13069 3.71108,-1.41936 7.11873,-3.49017 10.42158,-5.6731 4.77444,-3.2353 9.27572,-6.89016 13.26362,-11.06172 4.98405,-4.71821 9.13698,-10.24924 12.79183,-16.04211 8.85251,-14.1736 12.8667,-31.27939 11.2903,-47.90974 -1.19843,-13.86284 -5.75927,-27.2652 -12.12907,-39.57759 -2.47904,-5.10416 -5.58725,-9.86362 -8.47421,-14.73555 1.55045,-0.27715 3.11919,-0.41556 4.69193,-0.54299 5.81183,-0.59555 11.58608,-2.33298 16.48428,-5.56829 4.85296,-3.1305 8.60896,-7.80379 10.92698,-13.06898 2.23916,-4.79706 3.31016,-10.06192 3.73338,-15.31214 0.17966,-2.17195 -1.05604,-4.07407 -1.68154,-6.07002 -0.97352,-2.83472 -1.87983,-5.97287 -0.9286,-8.93103 0.78254,-2.10441 3.28022,-2.73357 5.30611,-2.63243 3.22799,-0.0935 6.25002,1.46028 9.47768,1.21341 -0.40824,-1.55411 -1.56908,-2.71128 -2.69997,-3.77464 -3.58366,-3.29153 -7.88997,-5.73298 -12.43982,-7.406862 -4.51226,-1.599021 -9.60145,-2.482708 -14.23349,-0.853743 -3.01837,1.056033 -5.06656,3.935665 -5.71435,6.987645 -0.82746,4.06676 0.0526,8.18575 0.8238,12.1853 -1.70749,-1.78235 -3.11553,-3.8272 -4.88324,-5.54966 -1.64027,-1.61765 -3.43759,-3.06695 -5.22393,-4.51226 -1.66257,-1.3405 -3.54606,-2.37424 -5.18268,-3.74103 -0.94357,-2.93952 -2.58751,-5.579604 -4.23145,-8.170776 -3.07061,-4.920499 -7.37326,-9.005887 -12.22256,-12.1477 -1.65159,-1.093297 -3.30284,-2.183266 -4.95044,-3.272902 -1.28461,-0.862393 -2.70762,-1.543791 -3.79726,-2.667364 M 62.273518,134.68493 c -0.816479,0.28081 -1.572737,0.70036 -2.28807,1.17947 2.160641,0.0935 4.246421,-0.54299 6.362146,-0.86505 6.10396,-0.96986 12.275129,-1.65891 18.46493,-1.5428 4.78941,0.14972 10.058259,0.59556 13.847865,3.86447 -2.718601,1.10095 -5.564632,1.84989 -8.256949,3.0257 -13.001443,5.14142 -24.819756,13.1139 -34.720643,22.95855 -7.695328,7.93489 -14.286049,16.997 -19.120375,26.95445 -10.81851,21.61073 -13.492195,47.14948 -7.448123,70.54257 2.156981,7.8527 6.335862,15.11716 11.960715,21.0002 8.182089,8.42198 19.030543,13.79164 30.238328,16.93711 14.106384,3.86447 28.905148,4.76313 43.457028,3.72972 11.45865,-0.78254 22.82381,-2.77117 33.92313,-5.71435 10.95326,-2.9881 21.70057,-6.84525 31.84866,-11.96039 8.86748,-4.32893 17.31541,-9.59013 24.89861,-15.92233 3.25427,-2.59117 6.08899,-5.64715 9.01354,-8.59399 6.80033,-7.47441 12.2189,-16.45035 14.43943,-26.37752 1.62531,-7.00994 1.4117,-14.36823 -0.2472,-21.34856 -2.73724,-11.40275 -8.0174,-22.10115 -14.77281,-31.64271 -13.98262,-19.59216 -33.84095,-34.68704 -55.95309,-44.00401 -14.36457,-6.10396 -29.83008,-9.54156 -45.41205,-10.27552 -17.057222,-0.70402 -34.237878,2.1084 -50.235072,8.05499 M 309.41572,273.23479 c -0.88003,0.895 -1.12358,2.20922 -1.17215,3.42262 -0.15738,3.76732 0.97751,7.42583 2.26178,10.92332 2.51265,6.55711 5.91298,12.94155 11.03178,17.84708 2.56522,2.72625 5.51206,5.10415 8.78497,6.93142 1.73377,1.01843 3.74103,1.72645 5.77424,1.32952 -0.35567,-1.61765 -1.25832,-3.02936 -1.78235,-4.5798 -1.76005,-5.08153 -3.2017,-10.28684 -5.38862,-15.21099 -2.44545,-5.37732 -5.4036,-10.57131 -9.24179,-15.07991 -2.17927,-2.21321 -4.25008,-4.77078 -7.24583,-5.89801 -0.97385,-0.41922 -2.19092,-0.39693 -3.02203,0.31475 z"
     id="path7"
     style="stroke-width:0.332713" /><path
     fill="#1f1a17"
     stroke="#1f1a17"
     d="m 62.273518,134.68493 c 15.997194,-5.94659 33.17785,-8.75868 50.235072,-8.05499 15.58163,0.73396 31.04715,4.17156 45.41205,10.27552 22.11247,9.31664 41.97047,24.41152 55.95309,44.00401 6.75541,9.54156 12.03557,20.23996 14.77281,31.64271 1.6589,6.98 1.87251,14.33829 0.2472,21.34856 -2.22053,9.92717 -7.6391,18.90311 -14.43943,26.37752 -2.92455,2.94718 -5.75927,6.00282 -9.01354,8.59399 -7.58287,6.3322 -16.03113,11.5934 -24.89861,15.92233 -10.14809,5.11514 -20.8954,8.97229 -31.84866,11.96039 -11.09932,2.94318 -22.46448,4.93181 -33.92313,5.71435 -14.55188,1.03341 -29.350977,0.13475 -43.457028,-3.72972 -11.207785,-3.14547 -22.056239,-8.51547 -30.238328,-16.93711 -5.62452,-5.88304 -9.803734,-13.1475 -11.960715,-21.0002 -6.044072,-23.39309 -3.370387,-48.93184 7.448123,-70.54257 4.834326,-9.95712 11.425047,-19.01923 19.120375,-26.95445 9.900887,-9.84465 21.7192,-17.81713 34.720643,-22.95855 2.692317,-1.17581 5.538348,-1.92475 8.256949,-3.0257 -3.789606,-3.26924 -9.058455,-3.71475 -13.847865,-3.86447 -6.190134,-0.11611 -12.361302,0.57294 -18.46493,1.5428 -2.115725,0.32206 -4.201505,0.95854 -6.362146,0.86505 0.715001,-0.47944 1.471591,-0.89866 2.28807,-1.17947 m 41.625782,18.05669 c -13.49952,3.40033 -26.096716,10.09952 -36.671679,19.12404 -10.784573,9.20817 -19.577191,20.75699 -25.490174,33.64997 -5.770582,12.55594 -8.81491,26.52358 -7.684017,40.35281 0.887347,10.44022 4.137957,20.94797 10.762281,29.20858 4.167902,5.27251 9.631389,9.45173 15.652836,12.39857 1.112261,0.5543 2.385223,0.76025 3.621253,0.61053 2.932204,-0.33338 5.778235,-1.15352 8.657869,-1.76738 0.524357,-0.20229 1.261982,-0.20595 1.561424,-0.74893 0.116117,-1.68886 -1.430335,-2.9545 -1.351814,-4.62838 5.414911,3.17941 8.616612,9.00988 13.862838,12.41753 1.505528,1.01844 3.381366,0.89134 5.111476,1.02243 3.553712,0.17966 7.122396,0.22458 10.676107,0.0299 0.0935,-0.0898 0.28447,-0.2695 0.38196,-0.35966 0.49807,-1.58405 0.23589,-3.30285 0.71134,-4.89056 0.11977,-0.71134 0.96986,-0.50173 1.39673,-0.22857 2.25447,1.35182 3.88709,3.60229 6.28362,4.72586 6.2274,-0.43818 12.38759,-1.7188 18.52116,-2.87231 0.54665,-0.17601 1.34816,-0.11978 1.58405,-0.76757 0.81249,-2.05218 0.47944,-4.43374 1.64028,-6.36614 2.14933,1.0374 3.01838,3.5424 4.81203,5.02896 0.33704,0.37064 0.8614,0.11978 1.27696,0.0675 2.76352,-0.70402 5.54201,-1.34815 8.27957,-2.14201 2.49768,-0.72265 5.19399,-1.19444 7.25715,-2.89826 3.96195,-3.14548 6.3698,-7.69899 9.10703,-11.85192 2.86466,-4.45603 5.7779,-9.32429 10.63485,-11.85192 0.008,0.20229 0.0263,0.61419 0.0336,0.82014 -1.08597,2.7186 -3.24661,5.03662 -3.66982,7.99477 2.77117,-0.33704 5.53834,-0.76025 8.33181,-0.8238 4.07806,-0.39326 8.23831,-0.4119 12.20758,-1.54279 1.53914,-0.4119 2.87232,-1.31455 4.04813,-2.36293 4.40379,-3.70343 8.44426,-7.89762 11.59739,-12.73195 3.53508,-5.33605 5.93527,-11.44367 6.85656,-17.78719 1.5541,-10.40661 -0.72631,-21.04512 -4.8157,-30.62793 -5.68074,-13.12887 -15.13214,-24.43414 -26.42643,-33.12928 -12.3613,-9.52292 -27.07023,-16.00118 -42.46854,-18.55875 -12.03158,-1.99961 -24.46774,-1.52416 -36.28971,1.48656 z"
     id="path8"
     style="stroke-width:0.332713" /><path
     fill="#c2c1c1"
     stroke="#c2c1c1"
     d="m 103.8993,152.74162 c 11.82197,-3.01072 24.25813,-3.48617 36.28971,-1.48656 15.39831,2.55757 30.10724,9.03583 42.46854,18.55875 11.29396,8.69514 20.74569,20.00041 26.42643,33.12928 4.08939,9.58281 6.3698,20.22132 4.8157,30.62793 -0.92129,6.34352 -3.32148,12.45114 -6.85656,17.78719 -3.15313,4.83433 -7.1936,9.02852 -11.59739,12.73195 -1.17581,1.04838 -2.50899,1.95103 -4.04813,2.36293 -3.96927,1.13089 -8.12985,1.14953 -12.20758,1.54279 -2.79347,0.0636 -5.56098,0.48676 -8.33181,0.8238 0.42321,-2.95815 2.58385,-5.27617 3.66982,-7.99477 -0.008,-0.20595 -0.0263,-0.61785 -0.0336,-0.82014 1.45662,-0.54665 3.01072,-0.7303 4.51991,-1.09729 6.73678,-1.63661 13.3275,-4.25407 18.93306,-8.39569 4.05944,-3.0593 7.56058,-6.95404 9.7698,-11.55979 3.26525,-6.57209 3.74103,-14.30102 2.08578,-21.38982 -2.73358,-11.61968 -10.60491,-21.83165 -20.88808,-27.80819 -4.80073,-2.71128 -9.9122,-4.84929 -15.14712,-6.56077 -13.93037,-4.475 -29.11508,-4.87192 -43.28501,-1.2733 -18.31155,4.65832 -34.922937,15.72038 -46.303067,30.79263 0.902319,2.07846 2.179273,3.96195 3.126841,6.01779 2.827398,5.81184 5.081532,12.06552 5.283822,18.58504 0.183325,5.29513 -1.471592,10.75463 -5.062901,14.72024 -4.849298,5.34737 -12.117756,8.24963 -19.292721,8.16712 0.190978,5.01033 1.351815,9.93482 2.505332,14.79909 0.636481,1.99961 0.831451,4.27271 2.21687,5.93893 -0.07852,1.67389 1.467932,2.93953 1.351815,4.62838 -0.299442,0.54299 -1.037401,0.54665 -1.561424,0.74894 -2.879635,0.61419 -5.725666,1.43433 -8.657869,1.76737 -1.235698,0.14972 -2.508992,-0.0562 -3.621253,-0.61053 -6.021448,-2.94717 -11.484935,-7.12605 -15.652836,-12.39856 -6.624325,-8.26094 -9.874602,-18.76837 -10.762282,-29.20858 -1.130893,-13.82924 1.913435,-27.79688 7.684017,-40.35282 5.912983,-12.89298 14.705268,-24.44146 25.490174,-33.64997 10.575296,-9.02385 23.172492,-15.72304 36.672012,-19.12337 m -42.176423,57.86685 c -3.108209,0.65145 -6.014128,2.17196 -8.376726,4.28768 -4.156589,3.70709 -6.617005,9.0884 -7.204909,14.58549 -0.614189,6.02145 0.771562,12.26382 4.055444,17.36798 2.77117,4.34756 6.942731,7.8863 11.874542,9.50395 4.852958,1.6476 10.398958,1.12724 14.836357,-1.4453 4.276366,-2.44511 7.429491,-6.58706 9.062116,-11.19648 3.879439,-10.7473 -0.172346,-24.00727 -9.85963,-30.26095 -4.190525,-2.75986 -9.455383,-3.90971 -14.387194,-2.84237 z"
     id="path9"
     style="stroke-width:0.332713" /><path
     fill="#ffffff"
     stroke="#ffffff"
     d="m 130.4831,181.92026 c 14.16993,-3.59863 29.35464,-3.2017 43.28502,1.27329 5.23524,1.71115 10.34672,3.8495 15.14711,6.56078 10.28284,5.97653 18.15417,16.18817 20.88808,27.80819 1.65525,7.08879 1.17947,14.81772 -2.08578,21.38981 -2.20955,4.60608 -5.71069,8.50049 -9.7698,11.55979 -5.60589,4.14162 -12.19661,6.75908 -18.93305,8.3957 -1.50919,0.36698 -3.0633,0.5503 -4.51992,1.09728 -4.85695,2.52763 -7.77019,7.39589 -10.63485,11.85192 -2.73723,4.15293 -5.14508,8.70645 -9.10703,11.85192 -2.06349,1.70383 -4.75947,2.17561 -7.25715,2.89827 -2.73723,0.79385 -5.51605,1.43798 -8.27957,2.14201 -0.41556,0.0526 -0.93992,0.30343 -1.27695,-0.0675 -1.79366,-1.48656 -2.66238,-3.99189 -4.81204,-5.02896 -1.16084,1.9324 -0.82746,4.31396 -1.64028,6.36614 -0.23589,0.64779 -1.0374,0.59156 -1.58404,0.76757 -6.13391,1.15352 -12.29377,2.43413 -18.52116,2.87231 -2.39654,-1.12324 -4.02916,-3.37404 -6.28363,-4.72586 -0.42687,-0.27349 -1.27695,-0.4831 -1.39673,0.22858 -0.47545,1.58771 -0.2136,3.3065 -0.71134,4.89055 -0.0975,0.0898 -0.28846,0.2695 -0.38196,0.35967 -3.553708,0.19463 -7.122392,0.14972 -10.676104,-0.03 -1.73011,-0.13109 -3.606281,-0.004 -5.111477,-1.02243 -5.246225,-3.40765 -8.447926,-9.23812 -13.862838,-12.41753 -1.385418,-1.66623 -1.580388,-3.93932 -2.216869,-5.93893 -1.153518,-4.86427 -2.314355,-9.78876 -2.505332,-14.7991 7.174965,0.0825 14.443422,-2.81974 19.292721,-8.16711 3.591308,-3.96561 5.246225,-9.42544 5.0629,-14.72024 -0.20229,-6.51952 -2.456423,-12.7732 -5.283822,-18.58504 -0.947568,-2.05584 -2.224189,-3.93933 -3.126841,-6.01779 11.379465,-15.07292 27.991182,-26.13464 46.302732,-30.79329 m 21.49828,7.68801 c -7.06617,0.88002 -13.6905,4.78209 -17.87703,10.54136 -4.19784,5.65446 -6.00647,13.02772 -4.80804,19.97411 0.93991,6.12626 4.17156,11.85558 8.88611,15.8701 4.50128,3.87578 10.33907,6.17516 16.27834,6.3698 4.75214,0.13475 9.56018,-0.94724 13.72809,-3.26159 6.01013,-3.2729 10.62753,-8.99491 12.59353,-15.54803 1.74874,-5.68807 1.43799,-11.96038 -0.74528,-17.48775 -2.34796,-5.96522 -6.96136,-11.00184 -12.70566,-13.85918 -4.69658,-2.40053 -10.12646,-3.3105 -15.35006,-2.59882 z"
     id="path10"
     style="stroke-width:0.332713" /><path
     fill="#1f1a17"
     stroke="#1f1a17"
     d="m 151.98138,189.60827 c 5.22393,-0.71135 10.65381,0.19829 15.3494,2.59882 5.7443,2.85734 10.3577,7.89396 12.70566,13.85918 2.18326,5.52703 2.49402,11.79968 0.74528,17.48775 -1.96601,6.55312 -6.58307,12.27513 -12.59354,15.54803 -4.1679,2.31435 -8.97594,3.39634 -13.72809,3.26159 -5.93893,-0.19464 -11.77706,-2.49402 -16.27834,-6.3698 -4.71455,-4.01419 -7.94619,-9.74384 -8.88611,-15.8701 -1.19843,-6.94639 0.61053,-14.31965 4.80805,-19.97411 4.18686,-5.75961 10.81119,-9.66134 17.87769,-10.54136 z"
     id="path11"
     style="stroke-width:0.332713" /><path
     fill="#1f1a17"
     stroke="#1f1a17"
     d="m 61.722877,210.60847 c 4.931811,-1.06734 10.196669,0.0825 14.387194,2.84237 9.687617,6.25368 13.739401,19.51365 9.85963,30.26095 -1.632625,4.60975 -4.78575,8.75137 -9.062116,11.19648 -4.437399,2.57254 -9.983399,3.09323 -14.836357,1.4453 -4.931811,-1.61765 -9.103372,-5.15639 -11.874542,-9.50395 -3.284215,-5.10416 -4.669633,-11.34653 -4.055444,-17.36798 0.587904,-5.49709 3.04832,-10.8784 7.204909,-14.58549 2.362598,-2.11572 5.268517,-3.63623 8.376726,-4.28768 z"
     id="path12"
     style="stroke-width:0.332713" /><path
     fill="#1f1a17"
     stroke="#1f1a17"
     d="m 309.41572,273.23479 c 0.83145,-0.71134 2.04818,-0.73397 3.02203,-0.31442 2.99575,1.12724 5.06656,3.68481 7.24583,5.89802 3.83819,4.50859 6.79667,9.70258 9.24179,15.0799 2.18692,4.92416 3.62857,10.12946 5.38862,15.21099 0.52436,1.55011 1.42668,2.96215 1.78235,4.5798 -2.03355,0.39693 -4.04047,-0.31075 -5.77424,-1.32952 -3.27291,-1.82726 -6.22008,-4.20517 -8.78497,-6.93142 -5.11913,-4.90553 -8.51913,-11.2903 -11.03178,-17.84708 -1.28427,-3.49748 -2.41916,-7.156 -2.26178,-10.92332 0.0486,-1.21373 0.29212,-2.52795 1.17215,-3.42295 z"
     id="path13"
     style="stroke-width:0.332713" /><path
     fill="#383431"
     stroke="#383431"
     d="m 73.608399,336.63999 c 2.243154,-0.70768 4.38117,-1.70383 6.650609,-2.32168 0.797514,1.70017 1.24335,3.53508 1.864858,5.30246 3.827203,10.912 9.537896,21.09769 16.510239,30.3022 -1.632625,2.4378 -3.594969,4.63969 -5.287482,7.03989 -4.463683,5.89801 -8.638904,12.01295 -13.346134,17.71998 -1.408043,1.43799 -2.778489,3.42629 -4.935471,3.62492 -2.782149,-0.44551 -5.092844,-2.25048 -7.268457,-3.9207 -5.167705,-4.2391 -9.208177,-9.66133 -12.878006,-15.19968 -4.29899,-6.95404 -8.32815,-14.36457 -9.657673,-22.52803 -0.374635,-2.87231 -0.307094,-6.42203 2.156981,-8.39935 3.875779,-3.2017 8.552732,-5.18999 13.188761,-7.01759 4.28435,-1.67787 8.691805,-3.0074 13.001775,-4.60242 z"
     id="path14"
     style="stroke-width:0.332713" /><path
     fill="#383431"
     stroke="#383431"
     d="m 239.77227,444.73979 c 7.07872,-0.45974 14.2366,-0.44569 21.30129,0.2586 6.67644,0.13664 13.38161,-0.2586 20.04337,0.38057 3.8018,0.62512 7.67511,0.0932 11.48455,0.69025 3.7156,0.66853 7.53145,0.0792 11.24704,0.84796 14.96964,1.10658 29.85308,3.21243 44.665,5.64842 17.0685,3.21945 34.13634,7.06467 50.22019,13.76218 7.01424,2.8025 13.69069,6.61899 19.34614,11.65634 2.67351,2.83186 5.02328,6.36737 5.28955,10.37031 -0.5319,5.92873 -4.94413,10.67939 -9.58686,13.99973 -3.32035,2.67351 -7.25877,4.34772 -11.02416,6.26651 -5.38983,2.90337 -11.24704,4.75063 -17.00337,6.74795 -17.37754,5.4045 -35.30099,8.84681 -53.28896,11.44816 -15.52325,1.93347 -31.08928,3.75135 -46.72043,4.31198 -4.82918,0.84797 -9.7452,0.48848 -14.61782,0.56064 -12.89315,1.02738 -25.86483,0.58935 -38.78608,0.46675 -6.54683,-0.96289 -13.19453,0.0217 -19.74136,-0.96992 -19.58364,-0.92012 -39.13153,-3.01832 -58.50638,-6.11582 -15.68095,-2.67351 -31.31212,-5.97214 -46.37562,-11.1538 -8.52307,-2.91041 -16.974623,-6.39613 -24.312591,-11.70678 -3.85224,-3.21242 -7.711503,-6.87053 -9.220342,-11.80061 -0.668535,-3.01833 0.689617,-6.01492 2.112892,-8.5882 4.132555,-5.62032 10.039558,-9.65199 16.327808,-12.51898 5.36107,-2.90339 11.067593,-5.05969 16.874363,-6.87757 13.89884,-4.91539 28.38702,-7.80473 42.86818,-10.37032 13.59682,-2.14865 27.23705,-4.08212 40.97114,-5.05204 3.90204,-0.78348 7.91965,-0.28733 11.83638,-0.94884 3.60066,-0.57533 7.27283,-0.0645 10.88052,-0.60343 7.86922,-0.94693 15.83165,0.0376 23.71556,-0.71004 z"
     id="path15"
     style="stroke-width:0.638527" /><text
     xml:space="preserve"
     style="font-weight:900;font-size:96px;line-height:1;font-family:Lato;-inkscape-font-specification:'Lato, Heavy';text-align:center;letter-spacing:0px;word-spacing:0px;text-anchor:middle;fill:#ffffff;stroke-width:5.33333;stroke-linejoin:round;stroke-opacity:0.815842"
     x="249.3616"
     y="523.3584"
     id="text1"><tspan
       sodipodi:role="line"
       id="tspan1"
       x="249.3616"
       y="523.3584">404</tspan></text></g></svg>
